<?xml version="1.0" encoding="UTF-8"?>
<svg id="Layer_1" xmlns="http://www.w3.org/2000/svg" version="1.1" viewBox="0 0 108.8 34">
  <!-- Generator: Adobe Illustrator 29.3.1, SVG Export Plug-In . SVG Version: 2.1.0 Build 151)  -->
  <defs>
    <style>
      .st0 {
        fill: #0df205;
        fill-rule: evenodd;
      }

      .st1 {
        fill: #797e7b;
      }

      .st2 {
        fill: #040d08;
      }
    </style>
  </defs>
  <path class="st0" d="M18.4-.6l-8.9,13.9s5.8-1.1,6.1,1.1c.4,3.4-3.5,18.8-3.5,18.8l10.2-21.1s-5.4,1-6.1-1.1S18.3-.6,18.3-.6h.1Z"/>
  <g>
    <path class="st2" d="M3.5,22.9c-.7-.4-1.1-.8-1.6-1.6-.4-.7-.6-1.3-.6-2.1V.4h4.2v18.7h6.4l-1,4.2h-5.4c-.7,0-1.4-.1-2.1-.6h0Z"/>
    <path class="st2" d="M26.5,22.9c-.7-.4-1.1-.8-1.6-1.6-.4-.7-.6-1.3-.6-2.1V1h4.2v5.2h6.7v4.2h-6.7v8.6h6.4v4.2h-6.7c-.8,0-1.6-.1-2.1-.6h.3Z"/>
    <path class="st2" d="M38.8,23.5V6.1h21.2c.8,0,1.6.1,2.1.6.7.4,1.1.8,1.6,1.6s.6,1.3.6,2.1v13.2h-4.2v-12.9h-5.9v12.9h-4.2v-12.9h-5.9v12.9h-5.1Z"/>
    <path class="st2" d="M71.7,23.5c-.8,0-1.6-.1-2.1-.6-.7-.4-1.1-.8-1.6-1.6s-.6-1.3-.6-2.1v-6.7h13.3v-2.1h-13.2v-4.2h13.5c.8,0,1.6.1,2.1.6.7.4,1.1.8,1.6,1.6s.6,1.3.6,2.1v13.2h-13.6ZM71.9,19.3h8.9v-2.8h-9.1v2.5h0v.3Z"/>
    <path class="st2" d="M88.4,23.5V6.1h13.5c.8,0,1.6.1,2.1.6.7.4,1.1.8,1.6,1.6.4.7.6,1.3.6,2.1v13.2h-4.2v-12.9h-8.8v12.9h-4.7Z"/>
  </g>
  <g>
    <path class="st1" d="M26.9,33.4v-5h-2.4v-1.3h6.1v1.3h-2.4v5h-1.3Z"/>
    <path class="st1" d="M31.7,33.4v-6.1h5.7v1.3h-4.4v1.3h3.5v1.3h-3.5v1.3h4.4v1.3h-5.7v-.3Z"/>
    <path class="st1" d="M39.8,33.4c-.3,0-.4,0-.6-.1-.1,0-.3-.3-.4-.4,0-.1-.1-.4-.1-.6v-3.7c0-.3,0-.4.1-.6,0-.1.3-.3.4-.4.1,0,.4-.1.6-.1h5v1.3h-4.8c-.1,0,0,0,0,.3v3.4h4.8v1.3h-5v-.3Z"/>
    <path class="st1" d="M46,33.4v-6.1h1.3v2.4h3.8v-2.4h1.3v6.1h-1.3v-2.4h-3.8v2.4s-1.3,0-1.3,0Z"/>
    <path class="st1" d="M53.7,33.4v-6.1h1.3l3.5,4.2v-4.2h1.3v6.1h-1.3l-3.5-4.2v4.2s-1.3,0-1.3,0Z"/>
    <path class="st1" d="M62.4,33.4c-.3,0-.4,0-.6-.1-.1,0-.3-.3-.4-.4,0-.1-.1-.4-.1-.6v-3.7c0-.3,0-.4.1-.6s.3-.3.4-.4c.1,0,.4-.1.6-.1h3.7c.3,0,.4,0,.6.1.1,0,.3.3.4.4,0,.1.1.4.1.6v3.7c0,.3,0,.4-.1.6,0,.1-.3.3-.4.4-.1,0-.4.1-.6.1h-3.7ZM62.4,32.2h3.5v-3.5h-3.5v3.5h0Z"/>
    <path class="st1" d="M68.7,33.4v-6.1h1.3v5h5v1.3h-6.2Z"/>
    <path class="st1" d="M76.9,33.4c-.3,0-.4,0-.6-.1-.1,0-.3-.3-.4-.4,0-.1-.1-.4-.1-.6v-3.7c0-.3,0-.4.1-.6s.3-.3.4-.4c.1,0,.4-.1.6-.1h3.7c.3,0,.4,0,.6.1.1,0,.3.3.4.4,0,.1.1.4.1.6v3.7c0,.3,0,.4-.1.6,0,.1-.3.3-.4.4-.1,0-.4.1-.6.1h-3.7ZM77,32.2h3.5v-3.5h-3.5v3.5h0Z"/>
    <path class="st1" d="M84.4,33.4c-.3,0-.4,0-.6-.1-.1,0-.3-.3-.4-.4,0-.1-.1-.4-.1-.6v-3.7c0-.3,0-.4.1-.6s.3-.3.4-.4c.1,0,.4-.1.6-.1h3.7c.3,0,.4,0,.6.1.1,0,.3.3.4.4,0,.1.1.4.1.6v.6h-1.3v-.4h-3.5v3.5h3.5v-1h-1.4v-1.3h2.5v2.3c0,.3,0,.4-.1.6,0,.1-.3.3-.4.4-.1,0-.4.1-.6.1h-3.7.1Z"/>
    <path class="st1" d="M90.5,33.4v-6.1h1.3v6.1s-1.3,0-1.3,0Z"/>
    <path class="st1" d="M93,33.4v-6.1h5.7v1.3h-4.4v1.3h3.5v1.3h-3.5v1.3h4.4v1.3h-5.7v-.3Z"/>
    <path class="st1" d="M101.1,33.4c-.3,0-.4,0-.6-.1-.1,0-.3-.3-.4-.4,0-.1-.1-.4-.1-.6v-.6h1.3v.4h3.5v-1.1h-3.7c-.3,0-.4,0-.6-.1-.1,0-.3-.3-.4-.4,0-.1-.1-.4-.1-.6v-1.3c0-.3,0-.4.1-.6s.3-.3.4-.4c.1,0,.4-.1.6-.1h3.7c.3,0,.4,0,.6.1.1,0,.3.3.4.4s.1.4.1.6v.6h-1.3v-.4h-3.5v1.1h3.7c.3,0,.4,0,.6.1s.3.3.4.4c0,.1.1.4.1.6v1.3c0,.3,0,.4-.1.6,0,.1-.3.3-.4.4-.1,0-.4.1-.6.1h-3.7Z"/>
  </g>
</svg>