<?xml version="1.0" encoding="UTF-8"?>
<svg id="Layer_1" xmlns="http://www.w3.org/2000/svg" version="1.1" viewBox="0 0 123 34">
  <!-- Generator: Adobe Illustrator 29.3.1, SVG Export Plug-In . SVG Version: 2.1.0 Build 151)  -->
  <defs>
    <style>
      .st0 {
        fill: #0df205;
        fill-rule: evenodd;
      }

      .st1 {
        fill: #797e7b;
      }

      .st2 {
        fill: #040d08;
      }
    </style>
  </defs>
  <g>
    <path class="st0" d="M12.4,4.9l-6.3,9.8s4.1-.8,4.3.8c.3,2.4-2.5,13.3-2.5,13.3l7.2-14.9s-3.8.7-4.3-.8c-.5-1.5,1.5-8.2,1.5-8.2h0Z"/>
    <g>
      <path class="st2" d="M1.9,21.5c-.5-.3-.8-.6-1.1-1.1-.3-.5-.4-.9-.4-1.5V5.6h3v13.2s0,0,0,0c0,0,0,0,0,0h4.5l-.7,3H3.4c-.5,0-1-.1-1.5-.4Z"/>
      <path class="st2" d="M18.1,21.5c-.5-.3-.8-.6-1.1-1.1-.3-.5-.4-.9-.4-1.5V6h3v3.7h4.7v3h-4.7v6.1s0,0,0,0c0,0,0,0,0,0h4.5v3h-4.7c-.6,0-1.1-.1-1.5-.4Z"/>
      <path class="st2" d="M26.8,21.9v-12.3h15c.6,0,1.1.1,1.5.4.5.3.8.6,1.1,1.1.3.5.4.9.4,1.5v9.3h-3v-9.1s0,0,0,0c0,0,0,0,0,0h-4.2s0,0,0,0c0,0,0,0,0,0v9.1h-3v-9.1s0,0,0,0c0,0,0,0,0,0h-4.2s0,0,0,0c0,0,0,0,0,0v9.1h-3Z"/>
      <path class="st2" d="M50,21.9c-.6,0-1.1-.1-1.5-.4-.5-.3-.8-.6-1.1-1.1-.3-.5-.4-.9-.4-1.5v-4.7h9.4v-1.5s0,0,0,0c0,0,0,0,0,0h-9.3v-3h9.5c.6,0,1.1.1,1.5.4.5.3.8.6,1.1,1.1.3.5.4.9.4,1.5v9.3h-9.5ZM50.2,18.9h6.3v-2h-6.4v1.8s0,0,0,0c0,0,0,0,0,0Z"/>
      <path class="st2" d="M61.8,21.9v-12.3h9.5c.6,0,1.1.1,1.5.4.5.3.8.6,1.1,1.1.3.5.4.9.4,1.5v9.3h-3v-9.1s0,0,0,0c0,0,0,0,0,0h-6.2s0,0,0,0c0,0,0,0,0,0v9.1h-3Z"/>
    </g>
    <g>
      <path class="st1" d="M18.4,28.9v-3.5h-1.7v-.9h4.3v.9h-1.7v3.5h-.9Z"/>
      <path class="st1" d="M21.8,28.9v-4.3h4v.9h-3.1v.9h2.5v.9h-2.5v.9h3.1v.9h-4Z"/>
      <path class="st1" d="M27.5,28.9c-.2,0-.3,0-.4-.1-.1,0-.2-.2-.3-.3,0-.1-.1-.3-.1-.4v-2.6c0-.2,0-.3.1-.4,0-.1.2-.2.3-.3.1,0,.3-.1.4-.1h3.5v.9h-3.2c0,0-.1,0-.2,0s0,0,0,.2v2.2c0,0,0,.1,0,.2,0,0,0,0,.2,0h3.2v.9h-3.5Z"/>
      <path class="st1" d="M31.9,28.9v-4.3h.9v1.7h2.7v-1.7h.9v4.3h-.9v-1.7h-2.7v1.7h-.9Z"/>
      <path class="st1" d="M37.3,28.9v-4.3h.9l2.5,3v-3h.9v4.3h-.9l-2.5-3v3h-.9Z"/>
      <path class="st1" d="M43.5,28.9c-.2,0-.3,0-.4-.1-.1,0-.2-.2-.3-.3,0-.1-.1-.3-.1-.4v-2.6c0-.2,0-.3.1-.4s.2-.2.3-.3c.1,0,.3-.1.4-.1h2.6c.2,0,.3,0,.4.1.1,0,.2.2.3.3,0,.1.1.3.1.4v2.6c0,.2,0,.3-.1.4,0,.1-.2.2-.3.3-.1,0-.3.1-.4.1h-2.6ZM43.5,28h2.5s0,0,0,0c0,0,0,0,0,0v-2.5s0,0,0,0c0,0,0,0,0,0h-2.5s0,0,0,0,0,0,0,0v2.5s0,0,0,0,0,0,0,0Z"/>
      <path class="st1" d="M47.9,28.9v-4.3h.9v3.5h3.5v.9h-4.3Z"/>
      <path class="st1" d="M53.7,28.9c-.2,0-.3,0-.4-.1-.1,0-.2-.2-.3-.3,0-.1-.1-.3-.1-.4v-2.6c0-.2,0-.3.1-.4s.2-.2.3-.3c.1,0,.3-.1.4-.1h2.6c.2,0,.3,0,.4.1.1,0,.2.2.3.3,0,.1.1.3.1.4v2.6c0,.2,0,.3-.1.4,0,.1-.2.2-.3.3-.1,0-.3.1-.4.1h-2.6ZM53.8,28h2.5s0,0,0,0c0,0,0,0,0,0v-2.5s0,0,0,0c0,0,0,0,0,0h-2.5s0,0,0,0,0,0,0,0v2.5s0,0,0,0,0,0,0,0Z"/>
      <path class="st1" d="M59,28.9c-.2,0-.3,0-.4-.1-.1,0-.2-.2-.3-.3,0-.1-.1-.3-.1-.4v-2.6c0-.2,0-.3.1-.4s.2-.2.3-.3c.1,0,.3-.1.4-.1h2.6c.2,0,.3,0,.4.1.1,0,.2.2.3.3,0,.1.1.3.1.4v.4h-.9v-.3s0,0,0,0,0,0,0,0h-2.5s0,0,0,0,0,0,0,0v2.5s0,0,0,0,0,0,0,0h2.5s0,0,0,0,0,0,0,0v-.7h-1v-.9h1.8v1.6c0,.2,0,.3-.1.4,0,.1-.2.2-.3.3-.1,0-.3.1-.4.1h-2.6Z"/>
      <path class="st1" d="M63.3,28.9v-4.3h.9v4.3h-.9Z"/>
      <path class="st1" d="M65.1,28.9v-4.3h4v.9h-3.1v.9h2.5v.9h-2.5v.9h3.1v.9h-4Z"/>
      <path class="st1" d="M70.8,28.9c-.2,0-.3,0-.4-.1-.1,0-.2-.2-.3-.3,0-.1-.1-.3-.1-.4v-.4h.9v.3s0,0,0,0,0,0,0,0h2.5s0,0,0,0,0,0,0,0v-.8s0,0,0,0c0,0,0,0,0,0h-2.6c-.2,0-.3,0-.4-.1-.1,0-.2-.2-.3-.3,0-.1-.1-.3-.1-.4v-.9c0-.2,0-.3.1-.4s.2-.2.3-.3c.1,0,.3-.1.4-.1h2.6c.2,0,.3,0,.4.1.1,0,.2.2.3.3s.1.3.1.4v.4h-.9v-.3s0,0,0,0,0,0,0,0h-2.5s0,0,0,0,0,0,0,0v.8s0,0,0,0c0,0,0,0,0,0h2.6c.2,0,.3,0,.4.1s.2.2.3.3c0,.1.1.3.1.4v.9c0,.2,0,.3-.1.4,0,.1-.2.2-.3.3-.1,0-.3.1-.4.1h-2.6Z"/>
    </g>
  </g>
  <g>
    <path class="st1" d="M83.5,9.9h0c0-.1.5-.1.5-.1l1.1,2,1.1-2h.6c0,.1-1.4,2.6-1.4,2.6v1.5h-.6v-1.5l-1.4-2.5Z"/>
    <path class="st1" d="M86.9,13v-1.3c0-.6.3-.9.9-.9h.8c.6,0,.9.3.9.9v1.3c0,.6-.3.9-.9.9h-.8c-.6,0-.9-.3-.9-.9ZM87.4,13c0,.2.1.4.4.4h.8c.2,0,.3-.1.3-.4v-1.4c0-.2-.1-.3-.3-.3h-.8c-.2,0-.4.1-.4.3v1.4Z"/>
    <path class="st1" d="M90.1,13v-2.2h.6v2.3c0,.2.1.4.4.4h1.1v-2.6h.6v3.1h-1.7c-.6,0-.9-.3-.9-.9Z"/>
    <path class="st1" d="M93.4,13.9v-2.8c.1-.2.4-.4.8-.4h.6l.3.2v.3h-.8c-.2,0-.3,0-.3.1v2.5h-.6Z"/>
    <path class="st1" d="M96.6,13.9v-4.2h.7l2,3.2v-3.2h.6v4.2h-.7l-2-3.2v3.2h-.6Z"/>
    <path class="st1" d="M100.6,13v-1.3c0-.6.3-.9.9-.9h.8c.6,0,.9.3.9.9v1.3c0,.6-.3.9-.9.9h-.8c-.6,0-.9-.3-.9-.9ZM101.1,13c0,.2.1.4.4.4h.8c.2,0,.3-.1.3-.4v-1.4c0-.2-.1-.3-.3-.3h-.8c-.2,0-.4.1-.4.3v1.4Z"/>
    <path class="st1" d="M103.8,13.9v-.7h.7v.7h-.7Z"/>
    <path class="st1" d="M105.2,13.9v-.6h1v-3.1h-.8v-.3l.3-.2h1.1v3.6h.9v.6h-2.5Z"/>
    <path class="st1" d="M83.6,17.9v-.9h3.5v.9h-1.2v3.2h-1v-3.2h-1.2Z"/>
    <path class="st1" d="M87.1,21.2v-2.8c.2-.3.5-.4.9-.4h.7l.4.3v.6h-.8c0,0-.2,0-.2,0v2.3h-1Z"/>
    <path class="st1" d="M89.3,20.1v-2.2h1v2.3c0,0,0,0,0,0h.7v-2.3h1v3.2h-1.8c-.7,0-1-.3-1-1Z"/>
    <path class="st1" d="M92.5,20.8v-.6h1.4c0,0,0,0,0-.1s0-.1,0-.2h-.6c-.5-.2-.8-.5-.8-1s.3-1,1-1h.9l.4.3v.6h-1.2c0,0,0,0,0,.1s0,.2,0,.2h.6c.5.2.8.5.8,1s-.3,1-1,1h-1l-.4-.3Z"/>
    <path class="st1" d="M95.4,20.1v-3.1h1v1h1v.9h-1v1.4c0,0,0,0,0,0h1v.6l-.4.3h-.6c-.7,0-1-.3-1-1Z"/>
    <path class="st1" d="M97.7,20.1v-1.2c0-.7.3-1,1-1h.8c.7,0,1,.3,1,1v1h-1.8v.3c0,0,0,0,0,0h1.6v.6l-.4.3h-1.3c-.7,0-1-.3-1-1ZM98.7,19.2h.8v-.3c0,0,0,0,0,0h-.6c0,0,0,0,0,0v.3Z"/>
    <path class="st1" d="M101,20.1v-1.2c0-.7.3-1,1-1h.8v-1.3h1v4.5h-1.8c-.7,0-1-.3-1-1ZM102,20.2c0,0,0,0,0,0h.7v-1.5h-.7c0,0,0,0,0,0v1.3Z"/>
    <path class="st1" d="M105.5,21.2v-4.2h1.6c1.2,0,1.8.6,1.8,1.8v.6c0,1.2-.6,1.8-1.8,1.8h-1.6ZM106.6,20.2h.6c.5,0,.7-.2.7-.7v-.9c0-.5-.2-.7-.7-.7h-.6v2.3Z"/>
    <path class="st1" d="M109.3,17.4v-.9h1v.9h-1ZM109.3,21.2v-3.2h1v3.2h-1Z"/>
    <path class="st1" d="M110.8,20.1v-1.2c0-.7.3-1,1-1h1.8v3.4c0,.7-.3,1-1,1h-1.1l-.4-.3v-.6h1.4c0,0,0,0,0,0v-.3h-.8c-.7,0-1-.3-1-1ZM111.8,20.2c0,0,0,0,0,0h.7v-1.5h-.7c0,0,0,0,0,0v1.3Z"/>
    <path class="st1" d="M114,17.4v-.9h1v.9h-1ZM114,21.2v-3.2h1v3.2h-1Z"/>
    <path class="st1" d="M115.5,20.1v-3.1h1v1h1v.9h-1v1.4c0,0,0,0,0,0h1v.6l-.4.3h-.6c-.7,0-1-.3-1-1Z"/>
    <path class="st1" d="M118.8,21.2c-.7,0-1-.3-1-1s.3-1,1-1h.7v-.3c0,0,0,0,0,0h-1.3v-.6l.4-.3h.9c.7,0,1,.3,1,1v2.2h-1.7ZM118.8,20.2c0,0,0,0,0,0h.6v-.3h-.6c0,0,0,0,0,0v.2Z"/>
    <path class="st1" d="M120.9,19.8v-3.2h1v3.3c0,.2.1.4.4.4v.9c-.9,0-1.4-.5-1.4-1.4Z"/>
    <path class="st1" d="M84,28.4v-4.2h2c.6,0,.9.3.9,1v.8c0,.6-.3.9-.9.9h-1.4v1.5h-.6ZM84.6,26.4h1.4c.2,0,.3-.1.3-.3v-.9c0-.2-.1-.3-.3-.3h-1.4v1.6Z"/>
    <path class="st1" d="M88,28.4c-.6,0-.9-.3-.9-.9s.3-.9.9-.9h1v-.4c0-.2-.1-.3-.3-.3h-1.3v-.3l.3-.2h1c.6,0,.9.3.9.9v2.2h-1.6ZM87.7,27.5c0,.2.1.4.4.4h1v-.9h-1c-.2,0-.4.1-.4.4v.2Z"/>
    <path class="st1" d="M90.2,28.4v-2.8c.1-.2.4-.4.8-.4h.6l.3.2v.3h-.8c-.2,0-.3,0-.3.1v2.5h-.6Z"/>
    <path class="st1" d="M92.2,27.5v-3.2h.6v1h1.1v.5h-1.1v1.8c0,.2.1.4.4.4h.8v.3l-.3.2h-.6c-.6,0-.9-.3-.9-.9Z"/>
    <path class="st1" d="M94.4,28.4v-3.1h1.7c.6,0,.9.3.9.9v2.2h-.6v-2.3c0-.2-.1-.3-.3-.3h-1.1v2.6h-.6Z"/>
    <path class="st1" d="M97.6,27.5v-1.3c0-.6.3-.9.9-.9h.8c.6,0,.9.3.9.9v.9h-2v.5c0,.2.1.4.4.4h1.6v.3l-.3.2h-1.3c-.6,0-.9-.3-.9-.9ZM98.2,26.6h1.5v-.5c0-.2-.1-.3-.3-.3h-.8c-.2,0-.4.1-.4.3v.5Z"/>
    <path class="st1" d="M100.8,28.4v-2.8c.1-.2.4-.4.8-.4h.6l.3.2v.3h-.8c-.2,0-.3,0-.3.1v2.5h-.6Z"/>
  </g>
  <rect class="st1" x="78.8" y="9.7" width=".4" height="19.2"/>
</svg>