<?xml version="1.0" encoding="UTF-8"?>
<svg id="Layer_1" xmlns="http://www.w3.org/2000/svg" version="1.1" viewBox="0 0 108.8 34">
  <!-- Generator: Adobe Illustrator 29.3.1, SVG Export Plug-In . SVG Version: 2.1.0 Build 151)  -->
  <defs>
    <style>
      .st0 {
        fill: #0df205;
        fill-rule: evenodd;
      }

      .st1 {
        fill: #040d08;
      }
    </style>
  </defs>
  <path class="st0" d="M19.1,1.3l-8.9,13.9s5.8-1.1,6.1,1.1c.4,3.4-1.1,16.4-1.1,16.4l7.8-18.7s-5.4,1-6.1-1.1,2.1-11.6,2.1-11.6h.1Z"/>
  <g>
    <path class="st1" d="M4.2,24.8c-.7-.4-1.1-.8-1.6-1.6-.4-.7-.6-1.3-.6-2.1V2.3h4.2v18.7h6.4l-1,4.2h-5.4c-.7,0-1.4-.1-2.1-.6h0v.2Z"/>
    <path class="st1" d="M27.2,24.8c-.7-.4-1.1-.8-1.6-1.6-.4-.7-.6-1.3-.6-2.1V2.9h4.2v5.2h6.7v4.2h-6.7v8.6h6.4v4.2h-6.7c-.8,0-1.6-.1-2.1-.6h.3v.3Z"/>
    <path class="st1" d="M39.5,25.4V8h21.2c.8,0,1.6,0,2.1.6.7.4,1.1.8,1.6,1.6s.6,1.3.6,2.1v13.2h-4.2v-12.9h-5.9v12.9h-4.2v-12.9h-5.9v12.9h-5.3Z"/>
    <path class="st1" d="M72.4,25.4c-.8,0-1.6-.1-2.1-.6-.7-.4-1.1-.8-1.6-1.6s-.6-1.3-.6-2.1v-6.7h13.3v-2.1h-13.2v-4.2h13.5c.8,0,1.6,0,2.1.6.7.4,1.1.8,1.6,1.6.5.8.6,1.3.6,2.1v13.2h-13.6v-.2ZM72.6,21.2h8.9v-2.8h-9.1v2.5h0v.3h.2Z"/>
    <path class="st1" d="M89.1,25.4V8h13.5c.8,0,1.6,0,2.1.6.7.4,1.1.8,1.6,1.6.4.7.6,1.3.6,2.1v13.2h-4.2v-12.9h-8.8v12.9h-4.8Z"/>
  </g>
</svg>